<svg preserveAspectRatio="none" width="100%" height="100%" overflow="visible" style="display: block;" viewBox="0 0 28 28" fill="none" xmlns="http://www.w3.org/2000/svg">
<g id="Coin" clip-path="url(#clip0_0_1010)">
<path id="Vector" d="M14 28C21.732 28 28 21.732 28 14C28 6.26801 21.732 0 14 0C6.26801 0 0 6.26801 0 14C0 21.732 6.26801 28 14 28Z" fill="var(--fill-0, #FED056)"/>
<path id="Vector_2" d="M14 25.4078C20.3004 25.4078 25.4078 20.3004 25.4078 14C25.4078 7.69964 20.3004 2.59219 14 2.59219C7.69964 2.59219 2.59219 7.69964 2.59219 14C2.59219 20.3004 7.69964 25.4078 14 25.4078Z" fill="var(--fill-0, #FEB635)"/>
<path id="Vector_3" d="M25.4078 14C25.4078 20.2891 20.2891 25.4078 14 25.4078C11.9492 25.4078 10.0297 24.8664 8.36719 23.9148C9.89844 24.6805 11.6266 25.1125 13.4531 25.1125C19.7422 25.1125 24.8609 19.9938 24.8609 13.7047C24.8609 9.46641 22.5313 5.75859 19.0859 3.79531C22.832 5.66563 25.4078 9.53203 25.4078 14ZM14.7766 3.12813C17.0242 3.12813 19.1187 3.78437 20.8797 4.90547C18.9656 3.46172 16.5813 2.59766 14 2.59766C7.71094 2.59766 2.59219 7.71094 2.59219 14.0055C2.59219 18.0633 4.725 21.6398 7.92969 23.6523C5.1625 21.5688 3.36875 18.2602 3.36875 14.5359C3.36875 8.24687 8.4875 3.12813 14.7766 3.12813Z" fill="var(--fill-0, #FC9924)"/>
<path id="Vector_4" d="M14.3938 8.62422L15.2359 11.2109C15.3398 11.5281 15.6406 11.7469 15.9742 11.7469H18.6922C19.4414 11.7469 19.7586 12.7094 19.1461 13.1523L16.9477 14.7492C16.6742 14.9461 16.5594 15.2961 16.6687 15.6188L17.5109 18.2055C17.7461 18.9219 16.9203 19.518 16.3187 19.075L14.1203 17.4781C13.8469 17.2813 13.4805 17.2813 13.207 17.4781L10.9922 19.075C10.3797 19.518 9.56484 18.9219 9.8 18.2055L10.6422 15.6188C10.7461 15.3016 10.6313 14.9461 10.3633 14.7492L8.16484 13.1523C7.55234 12.7094 7.86953 11.7469 8.61875 11.7469H11.3367C11.6703 11.7469 11.9711 11.5281 12.075 11.2109L12.9172 8.62422C13.1414 7.90781 14.1586 7.90781 14.3938 8.62422Z" fill="var(--fill-0, #1C2330)"/>
</g>
<defs>
<clipPath id="clip0_0_1010">
<rect width="28" height="28" fill="white"/>
</clipPath>
</defs>
</svg>
