<svg preserveAspectRatio="none" width="100%" height="100%" overflow="visible" style="display: block;" viewBox="0 0 13.0005 10.9949" fill="none" xmlns="http://www.w3.org/2000/svg">
<path id="Vector" d="M1.1479 0.0126437C1.1531 0.0202299 1.1817 0.0543678 1.209 0.0872414C1.4079 0.317356 1.5574 0.691609 1.638 1.16322C1.6913 1.47299 1.6939 1.57034 1.6939 2.75126V3.85126H1.1505C0.6539 3.85126 0.5967 3.84874 0.4992 3.82977C0.3458 3.79816 0.1872 3.71345 0.0806 3.60471C-0.0039 3.51747 -0.0013 3.51241 0.0039 3.77667C0.0104 3.9954 0.013 4.01943 0.0455 4.13828C0.0975 4.32667 0.169 4.46701 0.2769 4.59218C0.4238 4.76414 0.5733 4.86023 0.7865 4.92471C0.832 4.93736 0.9282 4.94241 1.2688 4.94494L1.6939 4.95126V5.49874V6.04747L1.0946 6.04368L0.4927 6.03989L0.3887 5.99943C0.2652 5.95138 0.2093 5.91598 0.0884 5.81103L0 5.73391L0.0052 5.9754C0.0117 6.1992 0.013 6.22448 0.0455 6.33828C0.1586 6.74035 0.4316 7.02736 0.7917 7.12092C0.8814 7.14494 0.9165 7.14621 1.2922 7.15126L1.6939 7.15632V8.2892C1.6939 8.97322 1.69 9.4777 1.6835 9.56368C1.677 9.64207 1.6562 9.78874 1.638 9.89115C1.5535 10.3628 1.4014 10.718 1.183 10.9482L1.1388 10.9949H3.3371C4.6514 10.9949 5.6342 10.9899 5.7785 10.9836C6.032 10.9709 6.5975 10.9166 6.7249 10.89C6.7652 10.8824 6.8406 10.871 6.89 10.8634C6.9953 10.8483 7.1695 10.8129 7.4204 10.7509C7.774 10.6649 8.0964 10.5575 8.4123 10.4209C8.5111 10.3779 8.7945 10.2376 8.8699 10.1933C8.9102 10.1706 8.9583 10.1428 8.9765 10.1339C9.0272 10.1074 9.1117 10.0543 9.2352 9.96828C9.2963 9.92529 9.3574 9.88356 9.3704 9.87471C9.425 9.83931 9.6135 9.68632 9.6993 9.6092C10.0256 9.31713 10.2986 8.99218 10.5105 8.64448C10.5404 8.59391 10.5794 8.53069 10.5963 8.50414C10.6392 8.43333 10.816 8.07931 10.8329 8.02621C10.8407 8.00218 10.8511 7.9769 10.8563 7.97184C10.8901 7.92885 11.0851 7.33207 11.1085 7.20184C11.1163 7.16012 11.1202 7.15379 11.1527 7.14747C11.1735 7.14368 11.4764 7.14368 11.8261 7.14621C12.5255 7.15127 12.5255 7.15126 12.6802 7.2208C12.7673 7.26 12.7933 7.2777 12.8895 7.36241C13.0156 7.47241 13.0039 7.49012 12.9961 7.21448C12.9909 7.05264 12.9844 6.95276 12.9727 6.9123C12.9285 6.75678 12.9181 6.72391 12.8791 6.64552C12.7517 6.37494 12.5385 6.18149 12.2655 6.0892L12.1589 6.05126L11.7247 6.04621L11.2918 6.03989L11.297 5.89195C11.3022 5.69724 11.3022 5.31161 11.2957 5.1131L11.2905 4.95379L11.8703 4.95126C12.3669 4.94874 12.4592 4.95126 12.5138 4.96517C12.6776 5.00943 12.7881 5.07012 12.9233 5.19023L12.9987 5.25851V5.07138C12.9987 4.84885 12.987 4.75023 12.9402 4.60356C12.8479 4.30644 12.6659 4.08517 12.4059 3.94862C12.2369 3.86012 12.2265 3.85759 11.6454 3.85379C11.3048 3.85126 11.1267 3.84621 11.1176 3.83862C11.1098 3.83103 11.1033 3.81839 11.1033 3.80828C11.1033 3.79816 11.0838 3.71851 11.0578 3.63253C10.7536 2.5869 10.1855 1.75621 9.3548 1.14046C9.2417 1.05575 8.9648 0.877471 8.853 0.816782C8.8101 0.792759 8.7633 0.767471 8.7516 0.759885C8.697 0.730805 8.3837 0.581609 8.3057 0.55C8.2589 0.52977 8.1978 0.504483 8.1705 0.494368C7.7116 0.30092 6.942 0.117586 6.3544 0.0606897C6.2582 0.0518391 6.1308 0.037931 6.0723 0.0328736C5.8071 0.0037931 5.4392 0 3.3501 0C1.5847 0 1.1414 0.0037931 1.1479 0.0126437ZM5.447 0.560115C5.8864 0.585402 6.1568 0.618276 6.4727 0.692874C7.4373 0.915402 8.1159 1.38575 8.6086 2.17218C8.6541 2.24552 8.8465 2.62736 8.8751 2.70448C9.0116 3.0623 9.0779 3.27471 9.1364 3.5554C9.1507 3.62368 9.1702 3.71471 9.1793 3.7577C9.1884 3.79943 9.1923 3.83862 9.1884 3.84241C9.1819 3.84747 7.8767 3.85 6.2855 3.84874L3.393 3.84621L3.3891 2.22149C3.3878 1.32885 3.3891 0.586667 3.393 0.572759L3.3982 0.548736H4.3225C4.8295 0.548736 5.3365 0.553793 5.447 0.560115ZM9.3145 4.9892C9.3236 5.04356 9.3236 5.96655 9.3145 6.01207L9.3067 6.04621L6.3492 6.04368L3.393 6.03989L3.3904 5.50379C3.3878 5.2092 3.3904 4.96391 3.393 4.95885C3.3969 4.95253 4.6566 4.94874 6.3531 4.94874H9.3067L9.3145 4.9892ZM9.1819 7.16012C9.1884 7.17908 9.1572 7.3346 9.0935 7.58747C9.0207 7.87195 8.9219 8.15897 8.8218 8.37138C8.7724 8.48012 8.6489 8.71529 8.619 8.75954C8.6047 8.77977 8.5631 8.84425 8.5267 8.90115C8.2927 9.2577 7.9586 9.58264 7.5777 9.82287C7.4386 9.90885 7.1526 10.0555 7.0759 10.0783C7.0603 10.0821 7.0434 10.0897 7.0369 10.0947C7.0278 10.1023 6.9095 10.1453 6.7717 10.1933C6.5182 10.2806 6.0359 10.3754 5.6485 10.4146C5.3976 10.4386 5.3573 10.4399 4.3914 10.4399H3.3917V8.8V7.15885L6.2634 7.15379C7.8429 7.15126 9.1442 7.14747 9.1546 7.14494C9.1663 7.14368 9.178 7.15126 9.1819 7.16012Z" fill="var(--fill-0, #1C2330)"/>
</svg>
